<svg xmlns="http://www.w3.org/2000/svg" viewBox="0 0 48 48" role="img" aria-label="Cage chain">
  <defs>
    <linearGradient id="cageFill" x1="0" y1="7" x2="0" y2="40" gradientUnits="userSpaceOnUse">
      <stop offset="0" stop-color="#f0fbf8"/>
      <stop offset="1" stop-color="#c9e5df"/>
    </linearGradient>
    <linearGradient id="chainFill" x1="8" y1="10" x2="40" y2="38" gradientUnits="userSpaceOnUse">
      <stop offset="0" stop-color="#75bdb2"/>
      <stop offset="1" stop-color="#2e6f75"/>
    </linearGradient>
  </defs>
  <rect x="5" y="7" width="16" height="16" rx="2.5" fill="url(#cageFill)" stroke="#244f58" stroke-width="2.5"/>
  <rect x="27" y="25" width="16" height="16" rx="2.5" fill="url(#cageFill)" stroke="#244f58" stroke-width="2.5"/>
  <path d="M13 7.2v15.6M5.2 15h15.6M35 25.2v15.6M27.2 33h15.6" fill="none" stroke="#5f9f9b" stroke-width="1.35" opacity=".72"/>
  <g fill="none" stroke-linecap="round">
    <path d="M14.8 29.8c-3.1-3.8-2.3-7.8 1.2-10.6l3-2.4c3.5-2.8 7.6-2.7 10.4.7 2.9 3.5 2.1 7.5-1.4 10.3l-2.2 1.8" stroke="#244f58" stroke-width="7.6"/>
    <path d="M14.8 29.8c-3.1-3.8-2.3-7.8 1.2-10.6l3-2.4c3.5-2.8 7.6-2.7 10.4.7 2.9 3.5 2.1 7.5-1.4 10.3l-2.2 1.8" stroke="url(#chainFill)" stroke-width="4.2"/>
    <path d="M33.2 18.2c3.1 3.8 2.3 7.8-1.2 10.6l-3 2.4c-3.5 2.8-7.6 2.7-10.4-.7-2.9-3.5-2.1-7.5 1.4-10.3l2.2-1.8" stroke="#244f58" stroke-width="7.6"/>
    <path d="M33.2 18.2c3.1 3.8 2.3 7.8-1.2 10.6l-3 2.4c-3.5 2.8-7.6 2.7-10.4-.7-2.9-3.5-2.1-7.5 1.4-10.3l2.2-1.8" stroke="#eafff9" stroke-width="4.2"/>
    <path d="M21.2 21.1 26.8 26.9" stroke="#244f58" stroke-width="4.8"/>
    <path d="M21.9 21.8 26.1 26.2" stroke="#eafff9" stroke-width="2.3"/>
  </g>
  <path d="M15 30.5c6 4.5 14 4.5 20 0" fill="none" stroke="#244f58" stroke-width="2.6" stroke-linecap="round" opacity=".42"/>
</svg>
